<?xml version="1.0" encoding="UTF-8"?>
<svg width="512" height="512" viewBox="0 0 512 512" xmlns="http://www.w3.org/2000/svg">
  <defs>
    <!-- Gradient definitions for professional look -->
    <linearGradient id="mainGradient" x1="0%" y1="0%" x2="100%" y2="100%">
      <stop offset="0%" style="stop-color:#1e3c72;stop-opacity:1" />
      <stop offset="50%" style="stop-color:#2a5298;stop-opacity:1" />
      <stop offset="100%" style="stop-color:#3b82f6;stop-opacity:1" />
    </linearGradient>
    
    <linearGradient id="accentGradient" x1="0%" y1="0%" x2="100%" y2="100%">
      <stop offset="0%" style="stop-color:#10b981;stop-opacity:1" />
      <stop offset="100%" style="stop-color:#059669;stop-opacity:1" />
    </linearGradient>
    
    <linearGradient id="centerGradient" x1="0%" y1="0%" x2="100%" y2="100%">
      <stop offset="0%" style="stop-color:#f8fafc;stop-opacity:1" />
      <stop offset="100%" style="stop-color:#e2e8f0;stop-opacity:1" />
    </linearGradient>
    
    <linearGradient id="shadowGradient" x1="0%" y1="0%" x2="100%" y2="100%">
      <stop offset="0%" style="stop-color:#000000;stop-opacity:0.2" />
      <stop offset="100%" style="stop-color:#000000;stop-opacity:0.05" />
    </linearGradient>

    <!-- Filter for subtle shadow -->
    <filter id="softShadow" x="-20%" y="-20%" width="140%" height="140%">
      <feDropShadow dx="0" dy="8" stdDeviation="16" flood-color="#000000" flood-opacity="0.15"/>
    </filter>
    
    <!-- Filter for inner glow -->
    <filter id="innerGlow" x="-50%" y="-50%" width="200%" height="200%">
      <feGaussianBlur stdDeviation="3" result="coloredBlur"/>
      <feMerge> 
        <feMergeNode in="coloredBlur"/>
        <feMergeNode in="SourceGraphic"/>
      </feMerge>
    </filter>
  </defs>
  
  <!-- Main background circle with professional gradient -->
  <circle cx="256" cy="256" r="240" fill="url(#mainGradient)" filter="url(#softShadow)"/>
  
  <!-- Inner circle for contrast -->
  <circle cx="256" cy="256" r="200" fill="url(#centerGradient)" opacity="0.95"/>
  
  <!-- Smart circuit pattern background -->
  <g opacity="0.1" stroke="#1e3c72" stroke-width="2" fill="none">
    <!-- Subtle circuit lines -->
    <path d="M 150 150 L 200 150 L 200 200 L 250 200"/>
    <path d="M 300 150 L 350 150 L 350 200 L 300 200"/>
    <path d="M 150 350 L 200 350 L 200 300 L 250 300"/>
    <path d="M 300 350 L 350 350 L 350 300 L 300 300"/>
    <!-- Circuit nodes -->
    <circle cx="200" cy="150" r="4" fill="#1e3c72"/>
    <circle cx="350" cy="200" r="4" fill="#1e3c72"/>
    <circle cx="200" cy="350" r="4" fill="#1e3c72"/>
    <circle cx="300" cy="300" r="4" fill="#1e3c72"/>
  </g>
  
  <!-- Central smart coin design -->
  <g transform="translate(256,256)">
    <!-- Main coin body -->
    <circle cx="0" cy="0" r="120" fill="url(#accentGradient)" filter="url(#innerGlow)"/>
    
    <!-- Inner coin border -->
    <circle cx="0" cy="0" r="110" fill="none" stroke="#ffffff" stroke-width="3" opacity="0.8"/>
    <circle cx="0" cy="0" r="95" fill="none" stroke="#ffffff" stroke-width="2" opacity="0.4"/>
    
    <!-- Smart brain/AI symbol at top -->
    <g transform="translate(0,-40)">
      <!-- Brain outline -->
      <path d="M -25 -15 Q -25 -25 -15 -25 Q 0 -30 15 -25 Q 25 -25 25 -15 Q 25 0 20 5 Q 15 15 0 15 Q -15 15 -20 5 Q -25 0 -25 -15 Z" 
            fill="#ffffff" opacity="0.9"/>
      <!-- Brain neural connections -->
      <g stroke="#10b981" stroke-width="1.5" fill="none" opacity="0.7">
        <path d="M -15 -10 Q 0 -5 15 -10"/>
        <path d="M -10 0 Q 0 5 10 0"/>
        <path d="M -12 8 Q 0 12 12 8"/>
      </g>
      <!-- Central processing dot -->
      <circle cx="0" cy="0" r="3" fill="#10b981"/>
    </g>
    
    <!-- Stylized cent symbol (¢) in center -->
    <g transform="translate(0,10)">
      <!-- Cent symbol with modern styling -->
      <path d="M 15 -20 Q -10 -20 -10 0 Q -10 20 15 20" 
            stroke="#ffffff" stroke-width="8" stroke-linecap="round" fill="none"/>
      <!-- Vertical line through cent -->
      <line x1="5" y1="-30" x2="5" y2="30" stroke="#ffffff" stroke-width="4" stroke-linecap="round"/>
    </g>
    
    <!-- Smart dots pattern around coin -->
    <g fill="#ffffff" opacity="0.6">
      <circle cx="60" cy="-60" r="3"/>
      <circle cx="85" cy="0" r="2"/>
      <circle cx="60" cy="60" r="3"/>
      <circle cx="0" cy="85" r="2"/>
      <circle cx="-60" cy="60" r="3"/>
      <circle cx="-85" cy="0" r="2"/>
      <circle cx="-60" cy="-60" r="3"/>
      <circle cx="0" cy="-85" r="2"/>
    </g>
    
    <!-- Digital enhancement lines -->
    <g stroke="#ffffff" stroke-width="2" fill="none" opacity="0.3">
      <path d="M 70 -70 L 90 -90"/>
      <path d="M 90 70 L 70 90"/>
      <path d="M -70 70 L -90 90"/>
      <path d="M -90 -70 L -70 -90"/>
    </g>
  </g>
  
  <!-- Modern tech corner accents -->
  <g fill="url(#accentGradient)" opacity="0.8">
    <!-- Top left -->
    <path d="M 50 50 L 80 50 L 80 60 L 60 60 L 60 80 L 50 80 Z"/>
    <!-- Top right -->
    <path d="M 462 50 L 432 50 L 432 60 L 452 60 L 452 80 L 462 80 Z"/>
    <!-- Bottom left -->
    <path d="M 50 462 L 80 462 L 80 452 L 60 452 L 60 432 L 50 432 Z"/>
    <!-- Bottom right -->
    <path d="M 462 462 L 432 462 L 432 452 L 452 452 L 452 432 L 462 432 Z"/>
  </g>
  
  <!-- Subtle outer ring for professional finish -->
  <circle cx="256" cy="256" r="250" fill="none" stroke="url(#shadowGradient)" stroke-width="4"/>
</svg> 